<svg viewBox="0 0 160 160" xmlns="http://www.w3.org/2000/svg">
	<style>
		path {
			fill: #000;
		}
		@media (prefers-color-scheme: dark) {
			path {
				fill: #f5bb2f;
			}
		}
	</style>
	<path d="M15.072 19.154L64.468 32.9s-17.942 18.174 3.96 34.25c.581-.157 6.138-11.719-2.899-12.389l-.289-1.566 17.4-8.414s12.116 6.292 6.059 19.106c0 0 21.365-12.58-4.139-29.359l51.007-24.833s74.164 100.004-47.316 140.61c0 0 21.861-55.283-3.308-54.946 0 0-21.525-2.104.959 39.845 0 0-89.936 6.376-83.56-76.177 0 0 3.02-24.498 10.739-36.58l1.847-2.957.144-.336z" clip-rule="evenodd" fill-rule="evenodd"/>
</svg>